HIERARCHY
ROOT Hips
{
	OFFSET 0.000000 0.000000 0.000000
	CHANNELS 6 Xposition Yposition Zposition Zrotation Yrotation Xrotation 
	JOINT LowerBack
	{
		OFFSET 0.000000 0.000000 0.000000
		CHANNELS 3 Zrotation Yrotation Xrotation
		JOINT Spine
		{
			OFFSET 0.028270 2.035590 -0.193380
			CHANNELS 3 Zrotation Yrotation Xrotation
			JOINT Spine1
			{
				OFFSET 0.056720 2.048850 -0.042750
				CHANNELS 3 Zrotation Yrotation Xrotation
				JOINT Neck
				{
					OFFSET 0.000000 0.000000 0.000000
					CHANNELS 3 Zrotation Yrotation Xrotation
					JOINT Neck1
					{
						OFFSET -0.054170 1.746240 0.172020
						CHANNELS 3 Zrotation Yrotation Xrotation
						JOINT Head
						{
							OFFSET 0.104070 1.761360 -0.123970
							CHANNELS 3 Zrotation Yrotation Xrotation
							End Site
							{
								OFFSET 0.000000 0.000000 0.000000
							}
						}
					}
				}
				JOINT LeftShoulder
				{
					OFFSET 0.000000 0.000000 0.000000
					CHANNELS 3 Zrotation Yrotation Xrotation
					JOINT LeftArm
					{
						OFFSET 3.362410 1.200890 -0.311210
						CHANNELS 3 Zrotation Yrotation Xrotation
						JOINT LeftForeArm
						{
							OFFSET 4.983000 -0.000000 -0.000000
							CHANNELS 3 Zrotation Yrotation Xrotation
							JOINT LeftHand
							{
								OFFSET 3.483560 -0.000000 -0.000000
								CHANNELS 3 Zrotation Yrotation Xrotation
								JOINT LeftFingerBase
								{
									OFFSET 0.000000 0.000000 0.000000
									CHANNELS 3 Zrotation Yrotation Xrotation
									JOINT LeftHandIndex1
									{
										OFFSET 0.715260 -0.000000 -0.000000
										CHANNELS 3 Zrotation Yrotation Xrotation
										End Site
										{
											OFFSET 0.000000 0.000000 0.000000
										}
									}
								}
								JOINT LThumb
								{
									OFFSET 0.000000 0.000000 0.000000
									CHANNELS 3 Zrotation Yrotation Xrotation
									End Site
									{
										OFFSET 0.000000 0.000000 0.000000
									}
								}
							}
						}
					}
				}
				JOINT RightShoulder
				{
					OFFSET 0.000000 0.000000 0.000000
					CHANNELS 3 Zrotation Yrotation Xrotation
					JOINT RightArm
					{
						OFFSET -3.136600 1.374050 -0.404650
						CHANNELS 3 Zrotation Yrotation Xrotation
						JOINT RightForeArm
						{
							OFFSET -5.241900 -0.000000 -0.000000
							CHANNELS 3 Zrotation Yrotation Xrotation
							JOINT RightHand
							{
								OFFSET -3.444170 -0.000000 -0.000000
								CHANNELS 3 Zrotation Yrotation Xrotation
								JOINT RightFingerBase
								{
									OFFSET 0.000000 0.000000 0.000000
									CHANNELS 3 Zrotation Yrotation Xrotation
									JOINT RightHandIndex1
									{
										OFFSET -0.622530 -0.000000 -0.000000
										CHANNELS 3 Zrotation Yrotation Xrotation
										End Site
										{
											OFFSET 0.000000 0.000000 0.000000
										}
									}
								}
								JOINT RThumb
								{
									OFFSET 0.000000 0.000000 0.000000
									CHANNELS 3 Zrotation Yrotation Xrotation
									End Site
									{
										OFFSET 0.000000 0.000000 0.000000
									}
								}
							}
						}
					}
				}
			}
		}
	}
}
}
MOTION
Frames: 13
Frame Time: 0.008333
-1.437342 16.897803 1.201861 -166.426120 83.386760 -148.896892 5.661419 -2.413697 -4.547158 0.548685 -2.968282 -3.614428 -6.535329 -2.826336 0.444407 4.048946 -12.092507 -11.630157 -5.294402 -0.379336 -1.188762 0.000000 0.000000 0.000000 7.809140 12.419360 -0.575283 -66.062544 -4.890027 20.577507 -178.028781 -56.801418 179.979860 2.489663 -1.647254 -0.049695 -0.110860 0.689356 -0.000000 0.000000 0.000000 0.000000 0.000000 0.000000 0.000000 14.153965 -5.757504 1.062977 71.417391 -5.372404 -9.834809 1.321140 62.999319 -0.012110 -6.115142 3.805158 -0.218059 0.126466 -0.219831 -0.000000 0.000000 0.000000 0.000000 0.000000 0.000000 0.000000 
-1.264405 16.845576 1.194119 -162.452847 83.267497 -145.289803 6.071142 -2.212795 -4.129210 0.609270 -2.784364 -3.580687 -6.472522 -2.644979 0.281944 4.029161 -11.488524 -11.495841 -5.407870 -0.388803 -1.164338 0.000000 0.000000 0.000000 7.825140 12.406184 -0.569840 -66.867940 -4.439078 19.598219 -178.062723 -56.601716 179.978605 2.588675 -2.003828 -0.060446 -0.108654 0.706600 -0.000000 0.000000 0.000000 0.000000 0.000000 0.000000 0.000000 14.453834 -5.049346 1.170635 70.731083 -5.112397 -9.534441 1.360572 61.856198 -0.015251 -7.244267 3.929727 -0.266072 0.135213 -0.217409 -0.000000 0.000000 0.000000 0.000000 0.000000 0.000000 0.000000 
-1.098902 16.802052 1.183421 -158.677649 83.015240 -141.889350 6.476579 -2.023652 -3.667493 0.670898 -2.610115 -3.541424 -6.410824 -2.475314 0.104124 4.058291 -10.832028 -11.324662 -5.507437 -0.396840 -1.130674 0.000000 0.000000 0.000000 7.802866 12.373213 -0.551585 -67.851489 -3.936984 18.769890 -178.128758 -56.766455 179.977317 2.688163 -2.230058 -0.068418 -0.105190 0.715581 0.000000 0.000000 0.000000 0.000000 0.000000 0.000000 0.000000 14.768567 -4.321914 1.282884 70.076720 -4.710934 -9.147170 1.400796 60.533334 -0.018510 -8.435738 4.077649 -0.320697 0.143599 -0.215264 -0.000000 0.000000 0.000000 0.000000 0.000000 0.000000 0.000000 
-0.939957 16.768228 1.170556 -155.476677 82.612303 -139.051224 6.870999 -1.850589 -3.194899 0.731632 -2.450333 -3.500240 -6.355771 -2.321357 -0.080089 4.130023 -10.150398 -11.126319 -5.588940 -0.403135 -1.089671 0.000000 0.000000 0.000000 7.711585 12.333714 -0.522731 -68.950240 -3.421150 18.112797 -178.223574 -57.290958 179.975776 2.816421 -2.291807 -0.073199 -0.102079 0.714938 -0.000000 0.000000 0.000000 0.000000 0.000000 0.000000 0.000000 15.085204 -3.603858 1.395092 69.484952 -4.174486 -8.663203 1.441705 59.052532 -0.021758 -9.628105 4.202621 -0.376534 0.151284 -0.213083 -0.000000 0.000000 0.000000 0.000000 0.000000 0.000000 0.000000 
-0.786376 16.744409 1.156943 -153.216554 82.060414 -137.127784 7.226966 -1.698051 -2.738755 0.785038 -2.308378 -3.459926 -6.314199 -2.185754 -0.262758 4.240615 -9.470013 -10.910476 -5.649914 -0.407564 -1.043214 0.000000 0.000000 0.000000 7.538668 12.297108 -0.486966 -70.093723 -2.922000 17.634799 -178.343588 -58.160948 179.973697 3.009623 -2.161929 -0.074388 -0.101056 0.703916 -0.000000 0.000000 0.000000 0.000000 0.000000 0.000000 0.000000 15.399726 -2.919952 1.501738 68.987052 -3.525061 -8.075981 1.482372 57.459676 -0.024877 -10.756255 4.257532 -0.425682 0.157997 -0.210653 -0.000000 0.000000 0.000000 0.000000 0.000000 0.000000 0.000000 
-0.637104 16.730307 1.143499 -151.966812 81.371815 -136.184109 7.533864 -1.565191 -2.314300 0.828434 -2.183263 -3.421175 -6.288899 -2.066892 -0.435147 4.377095 -8.831539 -10.691694 -5.686601 -0.409881 -0.994627 0.000000 0.000000 0.000000 7.268150 12.267875 -0.448727 -71.213564 -2.458109 17.326841 -178.484832 -59.343962 179.970756 3.308674 -1.821847 -0.071182 -0.103720 0.682497 -0.000000 0.000000 0.000000 0.000000 0.000000 0.000000 0.000000 15.690502 -2.306114 1.598413 68.615754 -2.762510 -7.375388 1.523472 55.793201 -0.027747 -11.752416 4.208983 -0.459836 0.163631 -0.207942 -0.000000 0.000000 0.000000 0.000000 0.000000 0.000000 0.000000 
-0.490725 16.725291 1.131965 -151.822371 80.571161 -136.308127 7.743596 -1.453578 -1.938056 0.851581 -2.073972 -3.385993 -6.285639 -1.963532 -0.592934 4.538344 -8.246533 -10.476392 -5.701279 -0.410408 -0.945221 0.000000 0.000000 0.000000 6.917785 12.253294 -0.410781 -72.248298 -2.046150 17.184111 -178.641009 -60.806798 179.966655 3.754588 -1.262486 -0.061175 -0.111486 0.651348 -0.000000 0.000000 0.000000 0.000000 0.000000 0.000000 0.000000 15.969188 -1.766282 1.679516 68.386736 -1.937803 -6.562696 1.562908 54.137864 -0.030284 -12.562591 4.028080 -0.471094 0.168101 -0.204915 -0.000000 0.000000 0.000000 0.000000 0.000000 0.000000 0.000000 
-0.346226 16.728542 1.122491 -152.558787 79.670195 -137.274950 7.854332 -1.358358 -1.615387 0.854346 -1.975972 -3.355162 -6.302322 -1.871125 -0.733152 4.707671 -7.740754 -10.273569 -5.693660 -0.409220 -0.897147 0.000000 0.000000 0.000000 6.488026 12.246488 -0.374907 -73.152784 -1.677534 17.182018 -178.806819 -62.493131 179.961176 4.381470 -0.490671 -0.039965 -0.124983 0.611932 -0.000000 0.000000 0.000000 0.000000 0.000000 0.000000 0.000000 16.214574 -1.317315 1.742936 68.313618 -1.066256 -5.634629 1.601337 52.550371 -0.032393 -13.139143 3.715177 -0.455952 0.171456 -0.201699 -0.000000 0.000000 0.000000 0.000000 0.000000 0.000000 0.000000 
-0.202626 16.739093 1.115313 -153.989524 78.680235 -138.896045 7.853678 -1.275672 -1.349544 0.834560 -1.884862 -3.330122 -6.336628 -1.785517 -0.856953 4.874369 -7.319656 -10.085204 -5.666681 -0.406669 -0.850864 0.000000 0.000000 0.000000 5.996175 12.237618 -0.341081 -73.897866 -1.336109 17.295316 -178.976194 -64.343177 179.954273 5.209966 0.469491 -0.001050 -0.144120 0.566311 -0.000000 0.000000 0.000000 0.000000 0.000000 0.000000 0.000000 16.420646 -0.956082 1.787304 68.394887 -0.185501 -4.595584 1.638156 51.102051 -0.033979 -13.454066 3.287653 -0.415405 0.173703 -0.198417 -0.000000 0.000000 0.000000 0.000000 0.000000 0.000000 0.000000 
-0.059139 16.755975 1.110290 -155.918849 77.610478 -140.974898 7.733433 -1.200558 -1.138940 0.790972 -1.795204 -3.310397 -6.384901 -1.701367 -0.961378 5.031159 -6.985355 -9.915594 -5.623212 -0.403017 -0.807757 0.000000 0.000000 0.000000 5.463255 12.237227 -0.309108 -74.469644 -1.026645 17.513588 -179.140918 -66.306233 179.946076 6.242736 1.575209 0.062772 -0.168383 0.517043 -0.000000 0.000000 0.000000 0.000000 0.000000 0.000000 0.000000 16.584277 -0.677440 1.809874 68.614951 0.675884 -3.440696 1.672517 49.854207 -0.034975 -13.505232 2.783715 -0.356250 0.174860 -0.195180 -0.000000 0.000000 0.000000 0.000000 0.000000 0.000000 0.000000 
0.084675 16.778259 1.106673 -158.120830 76.469439 -143.284872 7.503902 -1.126355 -0.979509 0.725985 -1.700962 -3.297148 -6.441086 -1.612951 -1.051594 5.167973 -6.729839 -9.760753 -5.566654 -0.398603 -0.766916 0.000000 0.000000 0.000000 4.907398 12.228534 -0.277787 -74.870915 -0.717162 17.803957 -179.296303 -68.314097 179.936978 7.455718 2.763479 0.156999 -0.196063 0.466864 -0.000000 0.000000 0.000000 0.000000 0.000000 0.000000 0.000000 16.695614 -0.466922 1.812465 68.953198 1.492426 -2.175996 1.704163 48.850832 -0.035311 -13.303778 2.260162 -0.288786 0.174867 -0.192226 -0.000000 0.000000 0.000000 0.000000 0.000000 0.000000 0.000000 
0.229027 16.805162 1.103428 -160.402828 75.270650 -145.632349 7.180032 -1.045667 -0.865315 0.642622 -1.595613 -3.289079 -6.499968 -1.513618 -1.125000 5.280731 -6.546131 -9.622818 -5.499577 -0.393589 -0.729342 0.000000 0.000000 0.000000 4.345301 12.228914 -0.246868 -75.114535 -0.413772 18.157499 -179.435926 -70.321452 179.927517 8.802276 3.959278 0.283029 -0.225482 0.418491 -0.000000 0.000000 0.000000 0.000000 0.000000 0.000000 0.000000 16.750743 -0.312304 1.794148 69.375718 2.256994 -0.793929 1.732498 48.118368 -0.034960 -12.886255 1.783164 -0.224808 0.173744 -0.189824 0.000000 0.000000 0.000000 0.000000 0.000000 0.000000 0.000000 
0.373730 16.836055 1.099431 -162.604906 74.033653 -147.859516 6.785176 -0.951734 -0.788933 0.545276 -1.473711 -3.287985 -6.556555 -1.398133 -1.192735 5.364408 -6.409385 -9.490036 -5.426189 -0.388376 -0.692030 0.000000 0.000000 0.000000 3.791613 12.210171 -0.214977 -75.221590 -0.069010 18.528023 -179.558370 -72.260842 179.918430 10.209558 5.080690 0.434453 -0.254012 0.374198 0.000000 0.000000 0.000000 0.000000 0.000000 0.000000 0.000000 16.745503 -0.184840 1.760258 69.849960 2.950815 0.686086 1.756873 47.671183 -0.033925 -12.292016 1.419990 -0.174617 0.171410 -0.188437 0.000000 0.000000 0.000000 0.000000 0.000000 0.000000 0.000000 
